<?xml version="1.0" encoding="utf-8"?>
<!-- Generator: Adobe Illustrator 22.1.0, SVG Export Plug-In . SVG Version: 6.00 Build 0)  -->
<svg version="1.1" id="Layer_1" xmlns="http://www.w3.org/2000/svg" xmlns:xlink="http://www.w3.org/1999/xlink" x="0px" y="0px"
	 viewBox="0 0 150 67" style="enable-background:new 0 0 150 67;" xml:space="preserve">
<style type="text/css">
	.st0{fill:#E7E7E7;}
	.st1{fill:#234983;}
	.st2{fill:#F79633;}
	.st3{fill:#FEDFBC;}
</style>
<g>
	<polygon class="st0" points="0.4,67 112,67 112,29.4 0.4,29.4 	"/>
	<path class="st1" d="M11,56.9c0,0.7-0.2,1.3-0.6,1.6C10,58.8,9.4,59,8.6,59s-1.4-0.2-1.8-0.5c-0.4-0.3-0.6-0.9-0.6-1.6v-2.5
		c0-0.3,0-0.5-0.1-0.6c-0.1-0.1-0.2-0.2-0.5-0.2l-0.1,0v-0.7h1.5h1.5v0.7l-0.1,0c-0.3,0-0.4,0.1-0.5,0.2c-0.1,0.1-0.1,0.3-0.1,0.6
		v2.4c0,0.4,0.1,0.8,0.3,1c0.2,0.2,0.5,0.3,0.8,0.3c0.4,0,0.8-0.1,0.9-0.4c0.2-0.2,0.3-0.6,0.3-1.2v-2.2c0-0.3,0-0.5-0.1-0.6
		c-0.1-0.1-0.2-0.2-0.5-0.2l-0.1,0v-0.7h1.2h1.2v0.7l-0.1,0c-0.3,0-0.4,0.1-0.5,0.2C11,53.9,11,54.1,11,54.4V56.9z"/>
	<path class="st1" d="M13.6,57.4c0,0.3,0,0.5,0.1,0.6c0.1,0.1,0.2,0.1,0.5,0.2l0.1,0v0.7h-1.2h-1.2v-0.7l0.1,0
		c0.2,0,0.4-0.1,0.5-0.2c0.1-0.1,0.1-0.3,0.1-0.6v-3c0-0.3,0-0.5-0.1-0.6c-0.1-0.1-0.2-0.2-0.5-0.2l-0.1,0v-0.7h1.3h1.3l1.2,3.7l0,0
		l1.3-3.7h1.4h1.4v0.7l-0.1,0c-0.2,0-0.4,0.1-0.5,0.2c-0.1,0.1-0.1,0.3-0.1,0.6v3c0,0.3,0,0.5,0.1,0.6c0.1,0.1,0.2,0.1,0.5,0.2
		l0.1,0v0.7h-1.5h-1.5v-0.7l0.1,0c0.2,0,0.4-0.1,0.5-0.2c0.1-0.1,0.1-0.3,0.1-0.6v-3l0,0l-1.5,4.5h-0.5h-0.5l-1.5-4.6l0,0V57.4z"/>
	<path class="st1" d="M21.8,57.4c0,0.3,0,0.5,0.1,0.6c0.1,0.1,0.2,0.1,0.5,0.2l0.1,0v0.7h-1.2h-1.2v-0.7l0.1,0
		c0.2,0,0.4-0.1,0.5-0.2c0.1-0.1,0.1-0.3,0.1-0.6v-3c0-0.3,0-0.5-0.1-0.6c-0.1-0.1-0.2-0.2-0.5-0.2l-0.1,0v-0.7h1.3H23l1.2,3.7h0
		l1.3-3.7h1.4h1.4v0.7l-0.1,0c-0.3,0-0.4,0.1-0.5,0.2c-0.1,0.1-0.1,0.3-0.1,0.6v3c0,0.3,0,0.5,0.1,0.6c0.1,0.1,0.2,0.1,0.5,0.2
		l0.1,0v0.7h-1.5h-1.5v-0.7l0.1,0c0.3,0,0.4-0.1,0.5-0.2c0.1-0.1,0.1-0.3,0.1-0.6v-3h0l-1.5,4.5h-0.5h-0.5l-1.5-4.6l0,0V57.4z"/>
	<path class="st1" d="M33.5,56h1.3l-0.6-1.7l0,0L33.5,56z M32,57.4l1.9-4.5h0.7h0.7l1.8,4.5c0.1,0.3,0.2,0.5,0.3,0.6
		c0.1,0.1,0.3,0.1,0.5,0.2l0.1,0v0.7h-1.6h-1.6v-0.7l0.2,0c0.3,0,0.5-0.1,0.5-0.2c0.1-0.1,0-0.3-0.1-0.6l-0.2-0.6h-2L33,57.4
		c-0.1,0.3-0.1,0.5-0.1,0.6c0.1,0.1,0.2,0.1,0.6,0.2l0.2,0v0.7h-1.3H31v-0.7l0.1,0c0.2,0,0.4-0.1,0.5-0.2
		C31.7,57.8,31.9,57.6,32,57.4z"/>
	<path class="st1" d="M37.7,58.8v-0.7l0.1,0c0.2,0,0.4-0.1,0.5-0.2c0.1-0.1,0.1-0.3,0.1-0.6v-3c0-0.3,0-0.5-0.1-0.6
		c-0.1-0.1-0.2-0.2-0.5-0.2l-0.1,0v-0.7h1.5h1.5v0.7l-0.1,0c-0.2,0-0.4,0.1-0.5,0.2c-0.1,0.1-0.1,0.3-0.1,0.6v3.1
		c0,0.2,0,0.4,0.1,0.5c0.1,0.1,0.2,0.1,0.4,0.1c0.4,0,0.8-0.1,1.1-0.4c0.4-0.2,0.7-0.7,1.1-1.2l0.6,0.3l-0.5,1l-0.5,1H40H37.7z"/>
	<path class="st1" d="M47,57.4v-3c0-0.3,0-0.5-0.1-0.6c-0.1-0.1-0.2-0.2-0.5-0.2l-0.1,0v-0.7h1.5h1.5v0.7l-0.1,0
		c-0.2,0-0.4,0.1-0.5,0.2c-0.1,0.1-0.1,0.3-0.1,0.6v0.8h2.2v-0.8c0-0.3,0-0.5-0.1-0.6c-0.1-0.1-0.2-0.2-0.5-0.2l-0.1,0v-0.7h1.5h1.5
		v0.7l-0.1,0c-0.2,0-0.4,0.1-0.5,0.2c-0.1,0.1-0.1,0.3-0.1,0.6v3c0,0.3,0,0.5,0.1,0.6c0.1,0.1,0.2,0.1,0.5,0.2l0.1,0v0.7h-1.5h-1.5
		v-0.7l0.1,0c0.2,0,0.4-0.1,0.5-0.2c0.1-0.1,0.1-0.3,0.1-0.6V56h-2.2v1.3c0,0.3,0,0.5,0.1,0.6c0.1,0.1,0.2,0.1,0.5,0.2l0.1,0v0.7
		h-1.5h-1.5v-0.7l0.1,0c0.3,0,0.4-0.1,0.5-0.2C47,57.8,47,57.7,47,57.4z"/>
	<path class="st1" d="M57.9,57.5c0.3-0.4,0.4-1,0.4-1.7c0-0.7-0.1-1.2-0.4-1.6s-0.6-0.6-1.1-0.6c-0.5,0-0.9,0.2-1.1,0.6
		c-0.3,0.4-0.4,1-0.4,1.7c0,0.7,0.1,1.2,0.4,1.6c0.3,0.4,0.6,0.6,1.1,0.6C57.2,58.1,57.6,57.9,57.9,57.5z M54.5,58.1
		c-0.6-0.6-0.9-1.3-0.9-2.2c0-0.9,0.3-1.7,0.9-2.3c0.6-0.6,1.4-0.9,2.3-0.9c0.9,0,1.7,0.3,2.3,0.9c0.6,0.6,0.9,1.3,0.9,2.2
		c0,0.9-0.3,1.7-0.9,2.3c-0.6,0.6-1.4,0.9-2.3,0.9C55.8,59,55.1,58.7,54.5,58.1z"/>
	<path class="st1" d="M65.8,56.9c0,0.7-0.2,1.3-0.6,1.6c-0.4,0.3-1,0.5-1.8,0.5s-1.4-0.2-1.8-0.5c-0.4-0.3-0.6-0.9-0.6-1.6v-2.5
		c0-0.3,0-0.5-0.1-0.6c-0.1-0.1-0.2-0.2-0.5-0.2l-0.1,0v-0.7h1.5h1.5v0.7l-0.1,0c-0.3,0-0.4,0.1-0.5,0.2c-0.1,0.1-0.1,0.3-0.1,0.6
		v2.4c0,0.4,0.1,0.8,0.3,1c0.2,0.2,0.5,0.3,0.8,0.3c0.4,0,0.8-0.1,0.9-0.4c0.2-0.2,0.3-0.6,0.3-1.2v-2.2c0-0.3,0-0.5-0.1-0.6
		c-0.1-0.1-0.2-0.2-0.5-0.2l-0.1,0v-0.7h1.2h1.2v0.7l-0.1,0c-0.2,0-0.4,0.1-0.5,0.2c-0.1,0.1-0.1,0.3-0.1,0.6V56.9z"/>
	<path class="st1" d="M66.9,58.8v-0.7l0.1,0c0.2,0,0.4-0.1,0.5-0.2c0.1-0.1,0.1-0.3,0.1-0.6v-3c0-0.3,0-0.5-0.1-0.6
		c-0.1-0.1-0.2-0.2-0.5-0.2l-0.1,0v-0.7h1.5H70v0.7l-0.2,0c-0.2,0-0.4,0.1-0.5,0.2c-0.1,0.1-0.1,0.3-0.1,0.6v3.1
		c0,0.2,0,0.4,0.1,0.5c0.1,0.1,0.2,0.1,0.4,0.1c0.4,0,0.8-0.1,1.1-0.4c0.4-0.2,0.7-0.7,1.1-1.2l0.6,0.3l-0.5,1l-0.4,1h-2.5H66.9z"/>
	<path class="st1" d="M77.8,55.6h0.5c0.4,0,0.7-0.1,0.9-0.3c0.2-0.2,0.3-0.4,0.3-0.7c0-0.3-0.1-0.5-0.3-0.7
		c-0.2-0.2-0.5-0.3-0.8-0.3h0c-0.2,0-0.4,0-0.4,0.1c-0.1,0.1-0.1,0.2-0.1,0.4V55.6z M76.2,57.4v-3c0-0.3,0-0.5-0.1-0.6
		c-0.1-0.1-0.2-0.2-0.5-0.2l-0.1,0v-0.7H77h1.8c0.7,0,1.2,0.1,1.6,0.5c0.4,0.3,0.6,0.7,0.6,1.3c0,0.6-0.2,1-0.6,1.3
		c-0.4,0.3-1,0.5-1.7,0.5l-1,0v0.9c0,0.3,0,0.5,0.1,0.6c0.1,0.1,0.2,0.1,0.5,0.2l0.1,0v0.7H77h-1.5v-0.7l0.1,0
		c0.2,0,0.4-0.1,0.5-0.2C76.2,57.8,76.2,57.7,76.2,57.4z"/>
	<path class="st1" d="M85.7,57.5c0.3-0.4,0.4-1,0.4-1.7c0-0.7-0.1-1.2-0.4-1.6s-0.6-0.6-1.1-0.6c-0.5,0-0.9,0.2-1.1,0.6
		c-0.3,0.4-0.4,1-0.4,1.7c0,0.7,0.1,1.2,0.4,1.6c0.3,0.4,0.6,0.6,1.1,0.6C85,58.1,85.4,57.9,85.7,57.5z M82.3,58.1
		c-0.6-0.6-0.9-1.3-0.9-2.2c0-0.9,0.3-1.7,0.9-2.3c0.6-0.6,1.4-0.9,2.3-0.9c0.9,0,1.7,0.3,2.3,0.9c0.6,0.6,0.9,1.3,0.9,2.2
		c0,0.9-0.3,1.7-0.9,2.3c-0.6,0.6-1.4,0.9-2.3,0.9C83.6,59,82.9,58.7,82.3,58.1z"/>
	<path class="st1" d="M90,58.8l-1.4-4.5c-0.1-0.3-0.2-0.5-0.3-0.6c-0.1-0.1-0.2-0.2-0.4-0.2l-0.1,0v-0.7h1.3h1.3v0.7l-0.1,0
		c-0.2,0-0.3,0.1-0.3,0.2c0,0.1,0,0.3,0.1,0.6L91,57v0l0.6-2.1l-0.2-0.5c-0.1-0.3-0.2-0.5-0.2-0.6c-0.1-0.1-0.2-0.2-0.3-0.2l-0.1,0
		v-0.7h1.4h1.4v0.7l-0.1,0c-0.2,0-0.4,0.1-0.4,0.2c-0.1,0.1,0,0.3,0.1,0.6l0.8,2.6l0.8-2.6c0.1-0.3,0.1-0.5,0.1-0.6
		c-0.1-0.1-0.2-0.1-0.5-0.2l-0.2,0v-0.7h1.3h1.3v0.7l-0.2,0c-0.2,0-0.4,0.1-0.5,0.2c-0.1,0.1-0.2,0.3-0.3,0.6L94,58.8h-0.6h-0.6
		L92,56.3l-0.9,2.6h-0.6H90z"/>
	<path class="st1" d="M96.4,58.8v-0.7l0.1,0c0.2,0,0.4-0.1,0.5-0.2c0.1-0.1,0.1-0.3,0.1-0.6v-3c0-0.3,0-0.5-0.1-0.6
		c-0.1-0.1-0.2-0.1-0.5-0.2l-0.1,0v-0.7h2.3h2.8l0.4,0.9l0.4,0.9l-0.6,0.3c-0.3-0.5-0.6-0.8-1-1c-0.4-0.2-0.8-0.3-1.3-0.3
		c-0.3,0-0.5,0-0.6,0.1c-0.1,0.1-0.1,0.3-0.1,0.6v0.9H99c0.4,0,0.6-0.1,0.7-0.2c0.1-0.1,0.1-0.4,0.2-0.8h0.7v1.3V57h-0.7
		c0-0.4-0.1-0.6-0.2-0.8c-0.1-0.1-0.4-0.2-0.7-0.2h-0.2v1.3c0,0.3,0,0.5,0.1,0.6c0.1,0.1,0.3,0.1,0.6,0.1c0.6,0,1-0.1,1.4-0.3
		c0.4-0.2,0.8-0.6,1.2-1.2l0.6,0.3l-0.5,1l-0.5,1h-3H96.4z"/>
	<path class="st1" d="M105,55.5h0.6c0.5,0,0.8-0.1,1.1-0.2c0.3-0.2,0.4-0.4,0.4-0.7c0-0.3-0.1-0.5-0.4-0.6c-0.2-0.2-0.6-0.2-1-0.2
		h-0.1c-0.2,0-0.4,0-0.4,0.1c-0.1,0.1-0.1,0.2-0.1,0.4V55.5z M103.5,57.4v-3c0-0.3,0-0.5-0.1-0.6c-0.1-0.1-0.2-0.2-0.5-0.2l-0.1,0
		v-0.7h1.5h2c0.8,0,1.5,0.1,1.9,0.4c0.4,0.3,0.6,0.7,0.6,1.2c0,0.5-0.2,0.9-0.7,1.3c-0.2,0.1-0.5,0.3-0.7,0.4l1,1.2
		c0.2,0.3,0.4,0.5,0.5,0.6c0.1,0.1,0.3,0.1,0.5,0.2l0.1,0v0.7h-0.6h-1.4l-1.8-2.6H105v1.1c0,0.3,0,0.5,0.1,0.6
		c0.1,0.1,0.3,0.1,0.6,0.2l0.2,0v0.7h-1.6h-1.6v-0.7l0.1,0c0.3,0,0.4-0.1,0.5-0.2C103.4,57.8,103.5,57.7,103.5,57.4z"/>
	<path class="st1" d="M9.2,38.5h1.4v1.6H9.2V38.5z M9.3,42.6H8.4c-0.9,0-1.1,1-1.1,1.6c0,0.7,0.4,1.5,1.1,1.5h0.9V42.6z M7.2,38.5
		h1.4v1.6H7.2V38.5z M8.3,47.1c-1.1,0-2.6-0.8-2.6-2.9c0-2,0.9-3,2.6-3h2.6v4.4h9.7v1.5H8.3z"/>
	<path class="st1" d="M24.3,38.5h1.4v1.6h-1.4V38.5z M24,42.4c-0.6,0-1.1,0.4-1.1,1.7c0,1.3,0.4,1.5,1.1,1.5c0.7,0,1.1-0.3,1.1-1.5
		C25.1,42.8,24.7,42.4,24,42.4z M22.2,38.5h1.4v1.6h-1.4V38.5z M24,47.1H12.3v-1.5h9.5c-0.3-0.3-0.4-0.9-0.4-1.5c0-1.9,1-3,2.7-3
		c1.7,0,2.7,1.1,2.7,3.1S25.7,47.1,24,47.1z"/>
	<path class="st1" d="M27.9,44.5v-5.6h1.6v5.6c0,0.8,0.4,1.2,1.4,1.2v1.5C29,47.1,27.9,46.1,27.9,44.5z"/>
	<path class="st1" d="M43.9,42.8c-1.5,0-2.3,1.8-2.7,2.9h2.5c0.8,0,1.2-0.7,1.2-1.7C44.9,43.4,44.6,42.8,43.9,42.8z M30.4,47.1v-1.5
		h9.2v-5.9h1.6l-0.1,3.4c0.6-0.9,1.5-1.7,2.9-1.7c1.8,0,2.6,1.5,2.5,2.7c0,0.4-0.1,1-0.4,1.6h1.4v1.5H30.4z"/>
	<path class="st1" d="M51.4,47.1c-0.8,0-1.4-0.2-1.9-0.6c-0.5,0.4-1.1,0.6-1.9,0.6h-0.4v-1.5h0.4c0.7,0,1-0.4,1-0.9V39h1.6v5.8
		c0,0.5,0.4,0.9,1.2,0.9h0.5v1.5H51.4z"/>
	<path class="st1" d="M51.4,47.1v-1.5c1.1,0,1.6-0.4,1.6-1.1V39h1.6v5.6C54.6,46.1,53.4,47.1,51.4,47.1z"/>
	<path class="st1" d="M60.9,49.4c-0.1,0-0.2,0-0.3,0c-1.5,0-2.5-1.1-2.5-2.6v-2.3h1.6v2.3c0,0.8,0.4,1.2,1.1,1.2s1.1-0.4,1.1-1.2V39
		h1.6v7.8C63.4,48.3,62.4,49.3,60.9,49.4z"/>
	<path class="st1" d="M68.2,42.6h-1c-0.9,0-1,1.1-1,1.7c0,0.7,0.3,1.3,1,1.3h1V42.6z M69.8,47.1c-0.2,1.4-1.3,2.3-2.6,2.4l-0.3,0V48
		c0.6,0,1.1-0.4,1.2-0.9h-0.9c-1.1,0-2.5-0.6-2.5-2.8c0-2,0.9-3.1,2.5-3.1h2.6v4.4h14v1.5H69.8z"/>
	<path class="st1" d="M83.6,47.1v-1.5h4c-0.1-3.2-3.2-3-3.2-3v-1.4c3.3,0,4.7,2,4.8,4.4h1.6v1.5H83.6z"/>
	<path class="st1" d="M90.4,47.1v-1.5c1.1,0,1.6-0.4,1.6-1.1V39h1.6v5.6C93.6,46.1,92.3,47.1,90.4,47.1z"/>
	<polygon class="st1" points="94.8,38.9 96.4,38.9 96.4,47.1 94.8,47.1 	"/>
	<path class="st1" d="M104.2,42.1c-0.6,0-1,0.4-1,1.8c0,1.3,0.4,1.8,1,1.8c0.6,0,1.1-0.5,1.1-1.7C105.2,42.5,104.8,42.1,104.2,42.1z
		 M104.2,47.1h-1.7c-0.8,0-1.2,0.4-1.2,1.1v1.1h-1.6v-1.1c0-1.4,0.7-2.4,2.1-2.5c-0.2-0.5-0.3-1.1-0.3-1.8c0-1.9,1-3.2,2.7-3.2
		c1.7,0,2.7,1.3,2.7,3.2C106.8,45.9,105.9,47.1,104.2,47.1z"/>
	<polygon class="st1" points="113,67 150.1,67 150.1,29.4 113,29.4 	"/>
	<polygon class="st1" points="108.1,38.9 109.6,38.9 109.6,47.1 108.1,47.1 	"/>
	<polygon class="st2" points="113.6,67 117.5,67 124.2,60.1 122.9,60.1 126,57.1 124.7,57.1 128.4,53 121.2,58.2 122.8,58.1 
		118.8,61.3 120.5,61.5 	"/>
	<path class="st2" d="M128.4,63.3c-0.1,0.8,0.5,1.6,1.3,1.7c0.8,0.1,1.6-0.5,1.7-1.3c0.1-0.6-0.2-1.1-0.7-1.4l0.2-7.2l-1.6,7
		C128.8,62.3,128.4,62.7,128.4,63.3z"/>
	<path class="st2" d="M131.8,63.7c0.1,0.8,0.8,1.4,1.7,1.3c0.8-0.1,1.4-0.8,1.3-1.7c-0.1-0.6-0.5-1.1-1-1.3l-1.4-7l0,7.2
		C132,62.6,131.7,63.1,131.8,63.7z"/>
	<path class="st2" d="M135.2,63.3c0.3,0.8,1.1,1.2,1.9,0.9c0.8-0.3,1.2-1.1,0.9-1.9c-0.2-0.6-0.7-0.9-1.2-1l-3-6.5l1.6,7
		C135.1,62.2,135,62.7,135.2,63.3z"/>
	<path class="st2" d="M138.4,62.1c0.4,0.7,1.4,0.9,2.1,0.5c0.7-0.4,0.9-1.4,0.5-2.1c-0.3-0.5-0.9-0.8-1.4-0.7l-4.4-5.7l3.2,6.5
		C138.1,61,138.1,61.6,138.4,62.1z"/>
	<path class="st2" d="M141.3,60.3c0.6,0.6,1.6,0.6,2.1,0c0.6-0.6,0.6-1.6,0-2.2c-0.4-0.4-1-0.5-1.6-0.4l-5.5-4.5l4.5,5.6
		C140.8,59.3,140.9,59.9,141.3,60.3z"/>
	<path class="st2" d="M143.7,57.8c0.7,0.4,1.7,0.2,2.1-0.5c0.4-0.7,0.2-1.6-0.5-2.1c-0.5-0.3-1.1-0.3-1.6,0l-6.4-3.2l5.7,4.4
		C142.9,57,143.2,57.5,143.7,57.8z"/>
	<path class="st2" d="M145.4,54.9c0.8,0.3,1.7-0.1,1.9-0.9s-0.1-1.7-0.9-1.9c-0.6-0.2-1.2,0-1.6,0.4l-7-1.7l6.5,3
		C144.5,54.2,144.9,54.7,145.4,54.9z"/>
	<path class="st2" d="M146.5,51.6c0.8,0.1,1.6-0.5,1.7-1.3c0.1-0.8-0.5-1.6-1.3-1.7c-0.6-0.1-1.1,0.2-1.4,0.7l-7.2-0.1l7,1.5
		C145.5,51.2,146,51.6,146.5,51.6z"/>
	<path class="st2" d="M146.8,48.2c0.8-0.1,1.4-0.9,1.3-1.7c-0.1-0.8-0.9-1.4-1.7-1.3c-0.6,0.1-1.1,0.5-1.2,1l-7,1.5l7.2-0.1
		C145.7,48,146.3,48.3,146.8,48.2z"/>
	<path class="st2" d="M146.4,44.8c0.8-0.3,1.2-1.2,0.9-2c-0.3-0.8-1.2-1.2-2-0.9c-0.6,0.2-0.9,0.7-1,1.3l-6.5,3.1l7-1.8
		C145.3,44.9,145.8,45,146.4,44.8z"/>
	<path class="st2" d="M145.1,41.6c0.7-0.5,0.9-1.4,0.4-2.1c-0.5-0.7-1.4-0.9-2.1-0.4c-0.5,0.3-0.7,0.9-0.7,1.5l-5.6,4.5l6.4-3.3
		C144.1,41.9,144.7,41.9,145.1,41.6z"/>
	<path class="st2" d="M143.2,38.8c0.6-0.6,0.6-1.6,0-2.1c-0.6-0.6-1.6-0.6-2.2,0c-0.4,0.4-0.5,1-0.3,1.6l-4.5,5.6l5.5-4.6
		C142.3,39.3,142.8,39.2,143.2,38.8z"/>
	<path class="st2" d="M140.7,36.4c0.4-0.7,0.2-1.6-0.5-2.1c-0.7-0.4-1.7-0.2-2.1,0.5c-0.3,0.5-0.3,1.1,0,1.6l-3.1,6.5l4.3-5.8
		C139.9,37.2,140.4,36.9,140.7,36.4z"/>
	<path class="st2" d="M137.8,34.7c0.3-0.8-0.2-1.6-1-1.9c-0.8-0.3-1.6,0.2-1.9,1c-0.2,0.6,0,1.2,0.4,1.6l-1.6,7l2.9-6.6
		C137.1,35.6,137.6,35.2,137.8,34.7z"/>
	<path class="st2" d="M134.5,33.7c0.1-0.8-0.5-1.6-1.4-1.6c-0.8-0.1-1.6,0.6-1.6,1.4c0,0.6,0.3,1.1,0.7,1.4l0.1,7.2l1.3-7.1
		C134.1,34.7,134.5,34.2,134.5,33.7z"/>
	<path class="st2" d="M131.1,33.4c-0.1-0.8-0.9-1.4-1.7-1.3c-0.8,0.1-1.4,0.9-1.3,1.7c0.1,0.6,0.5,1,1,1.2l1.7,7l-0.3-7.2
		C130.9,34.5,131.2,34,131.1,33.4z"/>
	<path class="st2" d="M127.7,33.9c-0.3-0.8-1.2-1.2-2-0.9s-1.2,1.2-0.9,2c0.2,0.6,0.7,0.9,1.3,1l3.2,6.4l-1.9-6.9
		C127.8,35.1,127.9,34.5,127.7,33.9z"/>
	<path class="st2" d="M124.5,35.2c-0.5-0.7-1.4-0.9-2.1-0.4c-0.7,0.5-0.9,1.4-0.4,2.1c0.3,0.5,0.9,0.7,1.5,0.6l4.5,5.5l-3.4-6.3
		C124.8,36.3,124.8,35.7,124.5,35.2z"/>
	<path class="st2" d="M121.7,37.2c-0.6-0.6-1.6-0.5-2.1,0.1s-0.5,1.6,0.1,2.1c0.4,0.4,1,0.5,1.6,0.3l5.7,4.4l-4.7-5.4
		C122.3,38.1,122.1,37.6,121.7,37.2z"/>
	<path class="st2" d="M119.4,39.7c-0.7-0.4-1.7-0.2-2.1,0.6c-0.4,0.7-0.2,1.7,0.6,2.1c0.5,0.3,1.1,0.2,1.6-0.1l6.5,3l-5.8-4.2
		C120.2,40.5,119.9,40,119.4,39.7z"/>
	<path class="st2" d="M117.7,42.7c-0.8-0.2-1.7,0.2-1.9,1c-0.2,0.8,0.2,1.7,1,1.9c0.6,0.2,1.2,0,1.5-0.4l7,1.4l-6.6-2.8
		C118.7,43.3,118.3,42.9,117.7,42.7z"/>
	<path class="st2" d="M116.8,46c-0.8-0.1-1.6,0.6-1.6,1.4c-0.1,0.8,0.6,1.6,1.4,1.6c0.6,0,1.1-0.3,1.4-0.7l7.2-0.2l-7.1-1.2
		C117.8,46.4,117.3,46,116.8,46z"/>
	<path class="st2" d="M116.6,49.4c-0.8,0.1-1.4,0.9-1.3,1.7c0.1,0.8,0.9,1.4,1.7,1.3c0.6-0.1,1-0.5,1.2-1.1l6.9-1.8L118,50
		C117.7,49.6,117.1,49.3,116.6,49.4z"/>
	<path class="st2" d="M117.2,52.8c-0.8,0.3-1.2,1.2-0.8,2c0.3,0.8,1.2,1.2,2,0.8c0.5-0.2,0.9-0.7,0.9-1.3l6.4-3.3l-6.9,2
		C118.3,52.7,117.7,52.6,117.2,52.8z"/>
</g>
<rect y="0" class="st3" width="15.4" height="23.9"/>
<rect x="19.2" y="0" class="st3" width="15.4" height="23.9"/>
<rect x="38.5" y="0" class="st3" width="15.4" height="23.9"/>
<rect x="57.7" y="0" class="st3" width="15.4" height="23.9"/>
<rect x="76.9" y="0" class="st3" width="15.4" height="23.9"/>
<rect x="96.2" y="0" class="st3" width="15.4" height="23.9"/>
<rect x="115.4" y="0" class="st3" width="15.4" height="23.9"/>
<rect x="134.6" y="0" class="st3" width="15.4" height="23.9"/>
</svg>
